<svg width="33" height="33" viewBox="0 0 33 33" fill="none" xmlns="http://www.w3.org/2000/svg">
<path d="M11.0001 15.125C10.7281 15.125 10.4623 15.2056 10.2362 15.3567C10.01 15.5078 9.8338 15.7226 9.72972 15.9738C9.62565 16.2251 9.59842 16.5015 9.65148 16.7682C9.70453 17.035 9.83549 17.28 10.0278 17.4723C10.2201 17.6646 10.4651 17.7955 10.7318 17.8486C10.9985 17.9016 11.275 17.8744 11.5262 17.7703C11.7775 17.6663 11.9922 17.49 12.1433 17.2639C12.2944 17.0378 12.3751 16.7719 12.3751 16.5C12.3751 16.1353 12.2302 15.7856 11.9723 15.5277C11.7145 15.2699 11.3647 15.125 11.0001 15.125ZM16.5001 15.125C16.2281 15.125 15.9623 15.2056 15.7361 15.3567C15.51 15.5078 15.3338 15.7226 15.2297 15.9738C15.1257 16.2251 15.0984 16.5015 15.1515 16.7682C15.2045 17.035 15.3355 17.28 15.5278 17.4723C15.7201 17.6646 15.9651 17.7955 16.2318 17.8486C16.4985 17.9016 16.775 17.8744 17.0262 17.7703C17.2775 17.6663 17.4922 17.49 17.6433 17.2639C17.7944 17.0378 17.8751 16.7719 17.8751 16.5C17.8751 16.1353 17.7302 15.7856 17.4723 15.5277C17.2145 15.2699 16.8647 15.125 16.5001 15.125ZM22.0001 15.125C21.7281 15.125 21.4623 15.2056 21.2361 15.3567C21.01 15.5078 20.8338 15.7226 20.7297 15.9738C20.6257 16.2251 20.5984 16.5015 20.6515 16.7682C20.7045 17.035 20.8355 17.28 21.0278 17.4723C21.2201 17.6646 21.4651 17.7955 21.7318 17.8486C21.9985 17.9016 22.275 17.8744 22.5262 17.7703C22.7775 17.6663 22.9922 17.49 23.1433 17.2639C23.2944 17.0378 23.3751 16.7719 23.3751 16.5C23.3751 16.1353 23.2302 15.7856 22.9723 15.5277C22.7145 15.2699 22.3647 15.125 22.0001 15.125ZM16.5001 2.75C14.6944 2.75 12.9064 3.10565 11.2382 3.79666C9.56993 4.48766 8.05415 5.50048 6.77734 6.77728C4.19872 9.35591 2.75006 12.8533 2.75006 16.5C2.73804 19.6751 3.8374 22.7542 5.85756 25.2038L3.10756 27.9538C2.91677 28.1471 2.78752 28.3926 2.73613 28.6594C2.68474 28.9261 2.71351 29.2021 2.81881 29.4525C2.93301 29.6999 3.11815 29.9078 3.35072 30.0498C3.5833 30.1918 3.85281 30.2615 4.12506 30.25H16.5001C20.1468 30.25 23.6442 28.8013 26.2228 26.2227C28.8014 23.6441 30.2501 20.1467 30.2501 16.5C30.2501 12.8533 28.8014 9.35591 26.2228 6.77728C23.6442 4.19866 20.1468 2.75 16.5001 2.75ZM16.5001 27.5H7.43881L8.71756 26.2212C8.84748 26.0939 8.95084 25.942 9.02165 25.7745C9.09245 25.6069 9.1293 25.4269 9.13006 25.245C9.12489 24.8823 8.97663 24.5364 8.71756 24.2825C6.91712 22.4841 5.79592 20.117 5.54501 17.5846C5.2941 15.0522 5.92898 12.5111 7.3415 10.3943C8.75401 8.27755 10.8568 6.71599 13.2915 5.97571C15.7263 5.23543 18.3424 5.36223 20.6941 6.33451C23.0458 7.30678 24.9877 9.06438 26.1889 11.3079C27.3901 13.5513 27.7763 16.1419 27.2816 18.6381C26.787 21.1344 25.4421 23.3819 23.4762 24.9978C21.5102 26.6137 19.0449 27.498 16.5001 27.5Z" fill="white"/>
</svg>
