<svg width="24" height="24" viewBox="0 0 24 24" fill="none" xmlns="http://www.w3.org/2000/svg">
<path fill-rule="evenodd" clip-rule="evenodd" d="M19.1191 6V18C19.1191 19.105 18.2241 20 17.1191 20H6.8811C5.7761 20 4.8811 19.105 4.8811 18V6C4.8811 4.895 5.7761 4 6.8811 4H17.1201C18.2241 4 19.1191 4.895 19.1191 6Z" stroke="#323232" stroke-width="1.5996" stroke-linecap="round" stroke-linejoin="round"/>
<path d="M19.1191 6H20.7211C21.5491 6 22.2211 6.672 22.2211 7.5V16.5C22.2211 17.328 21.5491 18 20.7211 18H19.1191" stroke="#323232" stroke-width="1.4685" stroke-linecap="round" stroke-linejoin="round"/>
<path d="M4.88108 18H3.27808C2.45008 18 1.77808 17.328 1.77808 16.5V7.5C1.77808 6.672 2.45008 6 3.27808 6H4.88008" stroke="#323232" stroke-width="1.4685" stroke-linecap="round" stroke-linejoin="round"/>
<path fill-rule="evenodd" clip-rule="evenodd" d="M11.4041 9.836L14.1751 11.475C14.5741 11.711 14.5741 12.289 14.1751 12.525L11.4041 14.164C10.9971 14.405 10.4841 14.111 10.4841 13.639V10.361C10.4841 9.888 10.9981 9.595 11.4041 9.836V9.836Z" stroke="#323232" stroke-width="1.5" stroke-linecap="round" stroke-linejoin="round"/>
</svg>
