<svg width="40" height="50" viewBox="0 0 40 50" fill="none" xmlns="http://www.w3.org/2000/svg">
<circle cx="17.5563" cy="15.5564" r="9.5" transform="rotate(-45 17.5563 15.5564)" stroke="white" stroke-width="3"/>
<path d="M24.7988 22.4548L29.2127 26.8687" stroke="white" stroke-width="3" stroke-linecap="round"/>
<path d="M5.86719 39.7812H2.72656V42.3066H5.62109V43.4844H2.72656V47H1.33203V38.5977H5.86719V39.7812ZM10.6953 42.2949C10.5312 42.166 10.2949 42.1016 9.98633 42.1016C9.58398 42.1016 9.24805 42.2832 8.97852 42.6465C8.70898 43.0098 8.57422 43.5039 8.57422 44.1289V47H7.21484V41H8.57422V42.2363H8.59766C8.73047 41.8145 8.93359 41.4863 9.20703 41.252C9.48438 41.0137 9.79297 40.8945 10.1328 40.8945C10.3789 40.8945 10.5664 40.9316 10.6953 41.0059V42.2949ZM12.3418 39.7402C12.1191 39.7402 11.9277 39.668 11.7676 39.5234C11.6113 39.3789 11.5332 39.1953 11.5332 38.9727C11.5332 38.75 11.6113 38.5645 11.7676 38.416C11.9277 38.2676 12.1191 38.1934 12.3418 38.1934C12.5723 38.1934 12.7676 38.2676 12.9277 38.416C13.0879 38.5645 13.168 38.75 13.168 38.9727C13.168 39.1836 13.0879 39.3652 12.9277 39.5176C12.7676 39.666 12.5723 39.7402 12.3418 39.7402ZM13.0156 47H11.6562V41H13.0156V47ZM19.877 44.3691H15.7871C15.8027 44.9238 15.9727 45.3516 16.2969 45.6523C16.625 45.9531 17.0742 46.1035 17.6445 46.1035C18.2852 46.1035 18.873 45.9121 19.4082 45.5293V46.625C18.8613 46.9688 18.1387 47.1406 17.2402 47.1406C16.3574 47.1406 15.6641 46.8691 15.1602 46.3262C14.6602 45.7793 14.4102 45.0117 14.4102 44.0234C14.4102 43.0898 14.6855 42.3301 15.2363 41.7441C15.791 41.1543 16.4785 40.8594 17.2988 40.8594C18.1191 40.8594 18.7539 41.123 19.2031 41.6504C19.6523 42.1777 19.877 42.9102 19.877 43.8477V44.3691ZM18.5645 43.4082C18.5605 42.9199 18.4453 42.541 18.2188 42.2715C17.9922 41.998 17.6797 41.8613 17.2812 41.8613C16.8906 41.8613 16.5586 42.0039 16.2852 42.2891C16.0156 42.5742 15.8496 42.9473 15.7871 43.4082H18.5645ZM26.5156 47H25.1562V43.6191C25.1562 42.498 24.7598 41.9375 23.9668 41.9375C23.5527 41.9375 23.2109 42.0938 22.9414 42.4062C22.6719 42.7148 22.5371 43.1055 22.5371 43.5781V47H21.1719V41H22.5371V41.9961H22.5605C23.0098 41.2383 23.6582 40.8594 24.5059 40.8594C25.1582 40.8594 25.6562 41.0723 26 41.498C26.3438 41.9199 26.5156 42.5312 26.5156 43.332V47ZM33.6348 47H32.2754V45.9805H32.252C31.8145 46.7539 31.1406 47.1406 30.2305 47.1406C29.4922 47.1406 28.9004 46.873 28.4551 46.3379C28.0137 45.7988 27.793 45.0664 27.793 44.1406C27.793 43.1484 28.0371 42.3535 28.5254 41.7559C29.0176 41.1582 29.6719 40.8594 30.4883 40.8594C31.2969 40.8594 31.8848 41.1836 32.252 41.832H32.2754V38.1172H33.6348V47ZM32.293 44.2578V43.4727C32.293 43.0469 32.1543 42.6855 31.877 42.3887C31.5996 42.0918 31.2461 41.9434 30.8164 41.9434C30.3086 41.9434 29.9082 42.1328 29.6152 42.5117C29.3262 42.8906 29.1816 43.416 29.1816 44.0879C29.1816 44.6973 29.3203 45.1797 29.5977 45.5352C29.8789 45.8867 30.2559 46.0625 30.7285 46.0625C31.1934 46.0625 31.5703 45.8926 31.8594 45.5527C32.1484 45.209 32.293 44.7773 32.293 44.2578ZM35.0352 46.8125V45.5527C35.543 45.9395 36.1035 46.1328 36.7168 46.1328C37.5371 46.1328 37.9473 45.8906 37.9473 45.4062C37.9473 45.2695 37.9121 45.1543 37.8418 45.0605C37.7715 44.9629 37.6758 44.877 37.5547 44.8027C37.4375 44.7285 37.2969 44.6621 37.1328 44.6035C36.9727 44.5449 36.793 44.4785 36.5938 44.4043C36.3477 44.3066 36.125 44.2031 35.9258 44.0938C35.7305 43.9844 35.5664 43.8613 35.4336 43.7246C35.3047 43.584 35.207 43.4258 35.1406 43.25C35.0742 43.0742 35.041 42.8691 35.041 42.6348C35.041 42.3457 35.1094 42.0918 35.2461 41.873C35.3828 41.6504 35.5664 41.4648 35.7969 41.3164C36.0273 41.1641 36.2891 41.0508 36.582 40.9766C36.875 40.8984 37.1777 40.8594 37.4902 40.8594C38.0449 40.8594 38.541 40.9434 38.9785 41.1113V42.3008C38.5566 42.0117 38.0723 41.8672 37.5254 41.8672C37.3535 41.8672 37.1973 41.8848 37.0566 41.9199C36.9199 41.9551 36.8027 42.0039 36.7051 42.0664C36.6074 42.1289 36.5312 42.2051 36.4766 42.2949C36.4219 42.3809 36.3945 42.4766 36.3945 42.582C36.3945 42.7109 36.4219 42.8203 36.4766 42.9102C36.5312 43 36.6113 43.0801 36.7168 43.1504C36.8262 43.2168 36.9551 43.2793 37.1035 43.3379C37.2559 43.3926 37.4297 43.4531 37.625 43.5195C37.8828 43.625 38.1133 43.7324 38.3164 43.8418C38.5234 43.9512 38.6992 44.0762 38.8438 44.2168C38.9883 44.3535 39.0996 44.5137 39.1777 44.6973C39.2559 44.877 39.2949 45.0918 39.2949 45.3418C39.2949 45.6465 39.2246 45.9121 39.084 46.1387C38.9434 46.3652 38.7559 46.5527 38.5215 46.7012C38.2871 46.8496 38.0156 46.959 37.707 47.0293C37.4023 47.1035 37.0801 47.1406 36.7402 47.1406C36.084 47.1406 35.5156 47.0312 35.0352 46.8125Z" fill="white"/>
</svg>
