<svg width="33" height="46" viewBox="0 0 33 46" fill="none" xmlns="http://www.w3.org/2000/svg">
<g filter="url(#filter0_d_1_1984)">
<path d="M16.9186 19.691L12.5042 17.0005V22.4811L16.9186 19.691Z" fill="#9AE769"/>
<path d="M8 5.94959V20.0598C8 21.1061 8.52814 22.1026 9.43493 22.6207C9.88335 22.8798 10.3816 23.0094 10.8798 22.9994C11.109 22.9994 11.2884 22.8001 11.2884 22.5709V3.41852C11.2884 3.18933 11.0991 3 10.8699 3C10.3218 3 9.76377 3.1694 9.28546 3.48828C8.45838 4.02638 8 4.96307 8 5.94959Z" fill="#9AE769"/>
<path d="M12.5042 9.00873L16.9186 6.31823L12.5042 3.52808V9.00873Z" fill="#9AE769"/>
<path d="M20.1572 8.37098L18.6525 7.41436C18.3037 7.19513 17.8553 7.18517 17.5065 7.4044L12.5142 10.4536V14.8681L20.1472 10.2045C20.8248 9.78599 20.8348 8.79947 20.1572 8.37098Z" fill="#9AE769"/>
<path d="M16.7391 13.7222L14.5568 15.0575L13.1218 15.9344L17.4964 18.6049C17.8452 18.8242 18.2936 18.8142 18.6423 18.595L20.157 17.6383C20.8346 17.2099 20.8246 16.2134 20.147 15.7949L16.7391 13.7222Z" fill="#9AE769"/>
<path d="M25.0001 13.0047C25.0001 12.0182 24.5018 11.1213 23.6748 10.5932L22.7879 10.0352L17.925 13.0047L22.7879 15.9742L23.6748 15.4162C24.5018 14.888 25.0001 13.9912 25.0001 13.0047Z" fill="#9AE769"/>
</g>
<path d="M7.78711 43H6.38672V39.3555H2.43164V43H1.03711V34.5977H2.43164V38.1309H6.38672V34.5977H7.78711V43ZM12.3691 43.1406C11.4434 43.1406 10.7031 42.8613 10.1484 42.3027C9.59766 41.7402 9.32227 40.9961 9.32227 40.0703C9.32227 39.0625 9.60938 38.2754 10.1836 37.709C10.7617 37.1426 11.5391 36.8594 12.5156 36.8594C13.4531 36.8594 14.1836 37.1348 14.707 37.6855C15.2305 38.2363 15.4922 39 15.4922 39.9766C15.4922 40.9336 15.209 41.7012 14.6426 42.2793C14.0801 42.8535 13.3223 43.1406 12.3691 43.1406ZM12.4336 37.9434C11.9023 37.9434 11.4824 38.1289 11.1738 38.5C10.8652 38.8711 10.7109 39.3828 10.7109 40.0352C10.7109 40.6641 10.8672 41.1602 11.1797 41.5234C11.4922 41.8828 11.9102 42.0625 12.4336 42.0625C12.9688 42.0625 13.3789 41.8848 13.6641 41.5293C13.9531 41.1738 14.0977 40.668 14.0977 40.0117C14.0977 39.3516 13.9531 38.8418 13.6641 38.4824C13.3789 38.123 12.9688 37.9434 12.4336 37.9434ZM25.8516 43H24.4922V39.7305C24.4922 39.1016 24.4023 38.6465 24.2227 38.3652C24.0469 38.084 23.748 37.9434 23.3262 37.9434C22.9707 37.9434 22.668 38.1211 22.418 38.4766C22.1719 38.832 22.0488 39.2578 22.0488 39.7539V43H20.6836V39.6191C20.6836 38.502 20.2891 37.9434 19.5 37.9434C19.1328 37.9434 18.8301 38.1113 18.5918 38.4473C18.3574 38.7832 18.2402 39.2188 18.2402 39.7539V43H16.8809V37H18.2402V37.9492H18.2637C18.6973 37.2227 19.3281 36.8594 20.1562 36.8594C20.5703 36.8594 20.9316 36.9746 21.2402 37.2051C21.5527 37.4316 21.7656 37.7305 21.8789 38.1016C22.3242 37.2734 22.9883 36.8594 23.8711 36.8594C25.1914 36.8594 25.8516 37.6738 25.8516 39.3027V43ZM32.5898 40.3691H28.5C28.5156 40.9238 28.6855 41.3516 29.0098 41.6523C29.3379 41.9531 29.7871 42.1035 30.3574 42.1035C30.998 42.1035 31.5859 41.9121 32.1211 41.5293V42.625C31.5742 42.9688 30.8516 43.1406 29.9531 43.1406C29.0703 43.1406 28.377 42.8691 27.873 42.3262C27.373 41.7793 27.123 41.0117 27.123 40.0234C27.123 39.0898 27.3984 38.3301 27.9492 37.7441C28.5039 37.1543 29.1914 36.8594 30.0117 36.8594C30.832 36.8594 31.4668 37.123 31.916 37.6504C32.3652 38.1777 32.5898 38.9102 32.5898 39.8477V40.3691ZM31.2773 39.4082C31.2734 38.9199 31.1582 38.541 30.9316 38.2715C30.7051 37.998 30.3926 37.8613 29.9941 37.8613C29.6035 37.8613 29.2715 38.0039 28.998 38.2891C28.7285 38.5742 28.5625 38.9473 28.5 39.4082H31.2773Z" fill="#9AE769"/>
<defs>
<filter id="filter0_d_1_1984" x="1" y="0" width="31" height="34" filterUnits="userSpaceOnUse" color-interpolation-filters="sRGB">
<feFlood flood-opacity="0" result="BackgroundImageFix"/>
<feColorMatrix in="SourceAlpha" type="matrix" values="0 0 0 0 0 0 0 0 0 0 0 0 0 0 0 0 0 0 127 0" result="hardAlpha"/>
<feOffset dy="4"/>
<feGaussianBlur stdDeviation="3.5"/>
<feComposite in2="hardAlpha" operator="out"/>
<feColorMatrix type="matrix" values="0 0 0 0 0.411765 0 0 0 0 0.741176 0 0 0 0 0.0235294 0 0 0 0.1 0"/>
<feBlend mode="normal" in2="BackgroundImageFix" result="effect1_dropShadow_1_1984"/>
<feBlend mode="normal" in="SourceGraphic" in2="effect1_dropShadow_1_1984" result="shape"/>
</filter>
</defs>
</svg>
