<svg width="31" height="41" viewBox="0 0 31 41" fill="none" xmlns="http://www.w3.org/2000/svg">
<path d="M17.509 21.2329L17.85 21.3661V21V17.6567C20.0517 17.5946 22.1509 16.7131 23.7144 15.1859C25.3372 13.6007 26.25 11.4495 26.25 9.20513C26.25 6.96077 25.3372 4.80956 23.7144 3.22439C22.0918 1.63941 19.8923 0.75 17.6 0.75H13.4C11.1077 0.75 8.90823 1.63941 7.28561 3.22439C5.6628 4.80956 4.75 6.96077 4.75 9.20513C4.75 12.6463 6.65225 15.1481 9.18183 17.0338C11.7063 18.9156 14.8867 20.2083 17.509 21.2329ZM15.5 15.109H15.25V15.359V17.5166C12.5347 16.2875 10.5822 15.0997 9.29722 13.7996C7.96764 12.4545 7.35 10.9869 7.35 9.20513C7.35 7.64125 7.98595 6.1402 9.11992 5.03254C10.2541 3.92468 11.7936 3.30128 13.4 3.30128H17.6C18.3953 3.30128 19.1827 3.4543 19.9171 3.75147C20.6516 4.04863 21.3185 4.48403 21.8801 5.03254C22.4416 5.58104 22.8867 6.23188 23.1903 6.94775C23.4938 7.66361 23.65 8.43065 23.65 9.20513C23.65 9.97961 23.4938 10.7466 23.1903 11.4625C22.8867 12.1784 22.4416 12.8292 21.8801 13.3777C21.3185 13.9262 20.6516 14.3616 19.9171 14.6588C19.1827 14.956 18.3953 15.109 17.6 15.109H15.5Z" fill="white" stroke="white" stroke-width="0.5"/>
<path d="M2.59766 38H1.16211V29.5977H2.59766V38ZM9.86328 38H8.50391V34.6191C8.50391 33.498 8.10742 32.9375 7.31445 32.9375C6.90039 32.9375 6.55859 33.0938 6.28906 33.4062C6.01953 33.7148 5.88477 34.1055 5.88477 34.5781V38H4.51953V32H5.88477V32.9961H5.9082C6.35742 32.2383 7.00586 31.8594 7.85352 31.8594C8.50586 31.8594 9.00391 32.0723 9.34766 32.498C9.69141 32.9199 9.86328 33.5312 9.86328 34.332V38ZM12.9102 37.1328H12.8867V38H11.5273V29.1172H12.8867V33.0547H12.9102C13.375 32.2578 14.0547 31.8594 14.9492 31.8594C15.707 31.8594 16.2988 32.1289 16.7246 32.668C17.1543 33.2031 17.3691 33.9219 17.3691 34.8242C17.3691 35.8281 17.1289 36.6328 16.6484 37.2383C16.168 37.8398 15.5117 38.1406 14.6797 38.1406C13.8984 38.1406 13.3086 37.8047 12.9102 37.1328ZM12.875 34.748V35.4922C12.875 35.9297 13.0137 36.3008 13.291 36.6055C13.5723 36.9102 13.9277 37.0625 14.3574 37.0625C14.8613 37.0625 15.2559 36.8672 15.541 36.4766C15.8301 36.082 15.9746 35.5332 15.9746 34.8301C15.9746 34.2402 15.8398 33.7793 15.5703 33.4473C15.3047 33.1113 14.9434 32.9434 14.4863 32.9434C14.002 32.9434 13.6113 33.1152 13.3145 33.459C13.0215 33.8027 12.875 34.2324 12.875 34.748ZM21.418 38.1406C20.4922 38.1406 19.752 37.8613 19.1973 37.3027C18.6465 36.7402 18.3711 35.9961 18.3711 35.0703C18.3711 34.0625 18.6582 33.2754 19.2324 32.709C19.8105 32.1426 20.5879 31.8594 21.5645 31.8594C22.502 31.8594 23.2324 32.1348 23.7559 32.6855C24.2793 33.2363 24.541 34 24.541 34.9766C24.541 35.9336 24.2578 36.7012 23.6914 37.2793C23.1289 37.8535 22.3711 38.1406 21.418 38.1406ZM21.4824 32.9434C20.9512 32.9434 20.5312 33.1289 20.2227 33.5C19.9141 33.8711 19.7598 34.3828 19.7598 35.0352C19.7598 35.6641 19.916 36.1602 20.2285 36.5234C20.541 36.8828 20.959 37.0625 21.4824 37.0625C22.0176 37.0625 22.4277 36.8848 22.7129 36.5293C23.002 36.1738 23.1465 35.668 23.1465 35.0117C23.1465 34.3516 23.002 33.8418 22.7129 33.4824C22.4277 33.123 22.0176 32.9434 21.4824 32.9434ZM30.7578 32L28.7598 35.0352L30.7344 38H29.1582L28.1035 36.1426C28.0371 36.0293 27.959 35.8848 27.8691 35.709H27.8457C27.8301 35.7441 27.748 35.8887 27.5996 36.1426L26.5273 38H24.957L26.9961 35.0586L25.0625 32H26.6445L27.6816 33.9512C27.7598 34.0957 27.8359 34.2441 27.9102 34.3965H27.9277L29.2695 32H30.7578Z" fill="white"/>
</svg>
