<svg width="29" height="29" viewBox="0 0 29 29" fill="none" xmlns="http://www.w3.org/2000/svg">
<path d="M7.25 18.125C9.25203 18.125 10.875 16.502 10.875 14.5C10.875 12.498 9.25203 10.875 7.25 10.875C5.24797 10.875 3.625 12.498 3.625 14.5C3.625 16.502 5.24797 18.125 7.25 18.125Z" stroke="white" stroke-width="2" stroke-linecap="round" stroke-linejoin="round"/>
<path d="M19.9375 26.2812C21.9395 26.2812 23.5625 24.6583 23.5625 22.6562C23.5625 20.6542 21.9395 19.0312 19.9375 19.0312C17.9355 19.0312 16.3125 20.6542 16.3125 22.6562C16.3125 24.6583 17.9355 26.2812 19.9375 26.2812Z" stroke="white" stroke-width="2" stroke-linecap="round" stroke-linejoin="round"/>
<path d="M19.9375 9.96875C21.9395 9.96875 23.5625 8.34578 23.5625 6.34375C23.5625 4.34172 21.9395 2.71875 19.9375 2.71875C17.9355 2.71875 16.3125 4.34172 16.3125 6.34375C16.3125 8.34578 17.9355 9.96875 19.9375 9.96875Z" stroke="white" stroke-width="2" stroke-linecap="round" stroke-linejoin="round"/>
<path d="M16.8884 8.30396L10.2987 12.5402" stroke="white" stroke-width="2" stroke-linecap="round" stroke-linejoin="round"/>
<path d="M10.2987 16.46L16.8884 20.6962" stroke="white" stroke-width="2" stroke-linecap="round" stroke-linejoin="round"/>
</svg>
