<svg width="35" height="41" viewBox="0 0 35 41" fill="none" xmlns="http://www.w3.org/2000/svg">
<path fill-rule="evenodd" clip-rule="evenodd" d="M9 3C9 2.44772 9.44772 2 10 2H23V4H10C9.44772 4 9 3.55228 9 3ZM7 6V3C7 1.34315 8.34315 0 10 0H23C24.1046 0 25 0.895431 25 2V4C26.1046 4 27 4.89543 27 6V7.5H25.25C22.9028 7.5 21 9.40279 21 11.75C21 14.0972 22.9028 16 25.25 16H27V17.5C27 18.6046 26.1046 19.5 25 19.5H9C7.89543 19.5 7 18.6046 7 17.5V6ZM28.945 8.69995H25.4109C23.6927 8.69995 22.2998 10.0928 22.2998 11.8111C22.2998 13.5293 23.6927 14.9222 25.4109 14.9222H28.945C29.6932 14.9222 30.2998 14.3156 30.2998 13.5673V10.0548C30.2998 9.30653 29.6932 8.69995 28.945 8.69995ZM25.4109 13.1444C26.1473 13.1444 26.7442 12.5474 26.7442 11.8111C26.7442 11.0747 26.1473 10.4777 25.4109 10.4777C24.6745 10.4777 24.0776 11.0747 24.0776 11.8111C24.0776 12.5474 24.6745 13.1444 25.4109 13.1444ZM12.6963 6H13.4222V6.92296H12.6963V6ZM16.72 14.0889C16.9067 13.7467 17 13.3318 17 12.8548C17 12.5333 16.9481 12.2326 16.8548 11.9422C16.7615 11.6622 16.6163 11.4133 16.4193 11.1955C16.2222 10.9778 15.9733 10.8015 15.6622 10.6563C15.3511 10.5215 14.9881 10.4281 14.5733 10.3867L13.3289 10.2622C13.1941 10.2415 13.0904 10.2104 13.0178 10.1689C12.9556 10.1274 12.9037 10.0859 12.8726 10.0444C12.8415 10.003 12.8207 9.95111 12.8207 9.90963C12.8104 9.86815 12.8104 9.83703 12.8104 9.81629C12.8104 9.72296 12.8726 9.62963 12.9867 9.51555C13.1007 9.40148 13.3081 9.34962 13.6089 9.34962C13.9304 9.34962 14.2415 9.38074 14.5526 9.44296C14.8637 9.50518 15.123 9.64 15.32 9.83703L16.8237 8.3437C16.4193 7.93926 15.9526 7.68 15.4237 7.54518C14.8948 7.41037 14.3037 7.34814 13.64 7.34814C13.2356 7.34814 12.8415 7.4 12.4578 7.51407C12.0637 7.61777 11.7215 7.7837 11.4207 8.01185C11.12 8.22963 10.8711 8.50963 10.6844 8.84148C10.4978 9.17333 10.4044 9.5674 10.4044 10.0133C10.4044 10.4074 10.4667 10.7393 10.5807 11.0193C10.7052 11.2993 10.8607 11.5378 11.0681 11.7244C11.2652 11.9111 11.5141 12.0563 11.8044 12.16C12.0844 12.2637 12.4059 12.3259 12.7585 12.357L14.003 12.4815C14.2518 12.5022 14.4074 12.5644 14.48 12.6681C14.5526 12.7718 14.5941 12.8756 14.5941 12.9896C14.5941 13.0933 14.5526 13.1763 14.48 13.2489C14.4074 13.3215 14.3141 13.3733 14.2 13.4148C14.0963 13.4563 13.9822 13.4874 13.8578 13.4978L13.8267 13.5006C13.7248 13.51 13.6314 13.5185 13.5467 13.5185C13.5001 13.5185 13.4493 13.5164 13.3934 13.5141L13.3933 13.5141H13.3933C13.3248 13.5113 13.2486 13.5081 13.163 13.5081C13.0178 13.5081 12.8415 13.477 12.6652 13.4356C12.4785 13.3837 12.2918 13.3215 12.1156 13.2281C11.9393 13.1348 11.7526 13 11.5867 12.8341L10 14.4207C10.28 14.7007 10.56 14.9185 10.8504 15.0741C11.1407 15.2296 11.4311 15.3437 11.7215 15.4163C12.0118 15.4993 12.3126 15.5407 12.6133 15.5615C12.9141 15.5822 13.2148 15.5926 13.5156 15.5926C13.9926 15.5926 14.4385 15.5407 14.8533 15.437C15.2785 15.3333 15.6415 15.1674 15.963 14.9393C16.2741 14.7111 16.5333 14.4311 16.72 14.0889ZM12.6963 16.0178H13.4222V16.9408H12.6963V16.0178ZM14.7806 16.0178H14.0547V16.9408H14.7806V16.0178ZM14.7806 6H14.0547V6.92296H14.7806V6Z" fill="white"/>
<path d="M11.7695 29.5977L9.4668 38H7.89062L6.29102 32.123C6.22461 31.873 6.18359 31.5996 6.16797 31.3027H6.14453C6.125 31.5801 6.07812 31.8496 6.00391 32.1113L4.39844 38H2.78711L0.4375 29.5977H1.9668L3.49023 35.75C3.55273 36.0078 3.5918 36.2773 3.60742 36.5586H3.63672C3.65234 36.3594 3.70703 36.0898 3.80078 35.75L5.52344 29.5977H6.95898L8.55273 35.7969C8.60742 36.0078 8.64844 36.2578 8.67578 36.5469H8.69922C8.71094 36.3516 8.75586 36.0938 8.83398 35.7734L10.3281 29.5977H11.7695ZM16.9199 38H15.6016V37.0625H15.5781C15.1641 37.7812 14.5566 38.1406 13.7559 38.1406C13.166 38.1406 12.7031 37.9805 12.3672 37.6602C12.0352 37.3398 11.8691 36.916 11.8691 36.3887C11.8691 35.2559 12.5215 34.5957 13.8262 34.4082L15.6074 34.1562C15.6074 33.3008 15.2012 32.873 14.3887 32.873C13.6738 32.873 13.0293 33.1191 12.4551 33.6113V32.4219C13.0879 32.0469 13.8184 31.8594 14.6465 31.8594C16.1621 31.8594 16.9199 32.6055 16.9199 34.0977V38ZM15.6074 35.0527L14.3477 35.2285C13.957 35.2793 13.6621 35.375 13.4629 35.5156C13.2676 35.6523 13.1699 35.8945 13.1699 36.2422C13.1699 36.4961 13.2598 36.7051 13.4395 36.8691C13.623 37.0293 13.8672 37.1094 14.1719 37.1094C14.5859 37.1094 14.9277 36.9648 15.1973 36.6758C15.4707 36.3828 15.6074 36.0156 15.6074 35.5742V35.0527ZM19.9492 38H18.584V29.1172H19.9492V38ZM23.0898 38H21.7246V29.1172H23.0898V38ZM29.9453 35.3691H25.8555C25.8711 35.9238 26.041 36.3516 26.3652 36.6523C26.6934 36.9531 27.1426 37.1035 27.7129 37.1035C28.3535 37.1035 28.9414 36.9121 29.4766 36.5293V37.625C28.9297 37.9688 28.207 38.1406 27.3086 38.1406C26.4258 38.1406 25.7324 37.8691 25.2285 37.3262C24.7285 36.7793 24.4785 36.0117 24.4785 35.0234C24.4785 34.0898 24.7539 33.3301 25.3047 32.7441C25.8594 32.1543 26.5469 31.8594 27.3672 31.8594C28.1875 31.8594 28.8223 32.123 29.2715 32.6504C29.7207 33.1777 29.9453 33.9102 29.9453 34.8477V35.3691ZM28.6328 34.4082C28.6289 33.9199 28.5137 33.541 28.2871 33.2715C28.0605 32.998 27.748 32.8613 27.3496 32.8613C26.959 32.8613 26.627 33.0039 26.3535 33.2891C26.084 33.5742 25.918 33.9473 25.8555 34.4082H28.6328ZM34.4043 37.9355C34.1387 38.0684 33.7891 38.1348 33.3555 38.1348C32.1914 38.1348 31.6094 37.5762 31.6094 36.459V33.0664H30.6074V32H31.6094V30.6113L32.9688 30.2246V32H34.4043V33.0664H32.9688V36.0664C32.9688 36.4219 33.0332 36.6758 33.1621 36.8281C33.291 36.9805 33.5059 37.0566 33.8066 37.0566C34.0371 37.0566 34.2363 36.9902 34.4043 36.8574V37.9355Z" fill="white"/>
</svg>
